<svg width="28" height="34" viewBox="0 0 28 34" fill="none" xmlns="http://www.w3.org/2000/svg">
<path fill-rule="evenodd" clip-rule="evenodd" d="M24 23.25V14.9167C24 9.8 21.2834 5.51667 16.5 4.38333V3.25C16.5 1.86667 15.3834 0.75 14 0.75C12.6167 0.75 11.5 1.86667 11.5 3.25V4.38333C6.73335 5.51667 4.00002 9.78333 4.00002 14.9167V23.25L0.666687 26.5833V28.25H27.3334V26.5833L24 23.25ZM14 33.25C15.8334 33.25 17.3334 31.75 17.3334 29.9167H10.6667C10.6667 31.75 12.1667 33.25 14 33.25ZM7.33335 24.9167H20.6667V14.9167C20.6667 10.7833 18.15 7.41667 14 7.41667C9.85002 7.41667 7.33335 10.7833 7.33335 14.9167V24.9167Z" fill="black" fill-opacity="0.54"/>
</svg>
