<svg width="30" height="26" viewBox="0 0 30 26" fill="none" xmlns="http://www.w3.org/2000/svg">
<g id="timeline_24px">
<path id="icon/action/timeline_24px" d="M28.75 8.66667C28.75 9.85833 27.625 10.8333 26.25 10.8333C26.025 10.8333 25.8125 10.8117 25.6125 10.7575L21.1625 14.6033C21.225 14.7767 21.25 14.9717 21.25 15.1667C21.25 16.3583 20.125 17.3333 18.75 17.3333C17.375 17.3333 16.25 16.3583 16.25 15.1667C16.25 14.9717 16.275 14.7767 16.3375 14.6033L13.15 11.8408C12.95 11.895 12.725 11.9167 12.5 11.9167C12.275 11.9167 12.05 11.895 11.85 11.8408L6.1625 16.7808C6.225 16.9542 6.25 17.1383 6.25 17.3333C6.25 18.525 5.125 19.5 3.75 19.5C2.375 19.5 1.25 18.525 1.25 17.3333C1.25 16.1417 2.375 15.1667 3.75 15.1667C3.975 15.1667 4.1875 15.1883 4.3875 15.2425L10.0875 10.3133C10.025 10.14 10 9.945 10 9.75C10 8.55833 11.125 7.58333 12.5 7.58333C13.875 7.58333 15 8.55833 15 9.75C15 9.945 14.975 10.14 14.9125 10.3133L18.1 13.0758C18.3 13.0217 18.525 13 18.75 13C18.975 13 19.2 13.0217 19.4 13.0758L23.8375 9.21917C23.775 9.04583 23.75 8.86167 23.75 8.66667C23.75 7.475 24.875 6.5 26.25 6.5C27.625 6.5 28.75 7.475 28.75 8.66667Z" fill="black" fill-opacity="0.54"/>
</g>
</svg>
